<mxfile host="app.diagrams.net" agent="Mozilla/5.0 (X11; Linux x86_64) AppleWebKit/537.36 (KHTML, like Gecko) Chrome/130.0.0.0 Safari/537.36" version="24.7.17">
  <diagram name="第 1 页" id="0Q1WDMiDIZYRKTIqLP5i">
    <mxGraphModel dx="2004" dy="1243" grid="0" gridSize="10" guides="1" tooltips="1" connect="1" arrows="1" fold="1" page="0" pageScale="1" pageWidth="827" pageHeight="1169" math="0" shadow="0">
      <root>
        <mxCell id="0" />
        <mxCell id="1" parent="0" />
        <mxCell id="T99oNMrwi7VfFmry0KHf-1" value="" style="ellipse;whiteSpace=wrap;html=1;aspect=fixed;" vertex="1" parent="1">
          <mxGeometry x="235" y="-6" width="80" height="80" as="geometry" />
        </mxCell>
        <mxCell id="T99oNMrwi7VfFmry0KHf-2" value="" style="ellipse;whiteSpace=wrap;html=1;aspect=fixed;" vertex="1" parent="1">
          <mxGeometry x="-235" y="-68" width="80" height="80" as="geometry" />
        </mxCell>
        <mxCell id="T99oNMrwi7VfFmry0KHf-3" value="" style="ellipse;whiteSpace=wrap;html=1;aspect=fixed;" vertex="1" parent="1">
          <mxGeometry x="-310" y="62" width="80" height="80" as="geometry" />
        </mxCell>
        <mxCell id="T99oNMrwi7VfFmry0KHf-4" value="" style="ellipse;whiteSpace=wrap;html=1;aspect=fixed;" vertex="1" parent="1">
          <mxGeometry x="-56" y="-143" width="80" height="80" as="geometry" />
        </mxCell>
        <mxCell id="T99oNMrwi7VfFmry0KHf-5" value="" style="ellipse;whiteSpace=wrap;html=1;aspect=fixed;" vertex="1" parent="1">
          <mxGeometry x="138" y="-132" width="80" height="80" as="geometry" />
        </mxCell>
        <mxCell id="T99oNMrwi7VfFmry0KHf-6" value="" style="ellipse;whiteSpace=wrap;html=1;aspect=fixed;" vertex="1" parent="1">
          <mxGeometry x="241" y="135" width="80" height="80" as="geometry" />
        </mxCell>
        <mxCell id="T99oNMrwi7VfFmry0KHf-7" value="" style="ellipse;whiteSpace=wrap;html=1;aspect=fixed;" vertex="1" parent="1">
          <mxGeometry x="131" y="289" width="80" height="80" as="geometry" />
        </mxCell>
        <mxCell id="T99oNMrwi7VfFmry0KHf-8" value="" style="ellipse;whiteSpace=wrap;html=1;aspect=fixed;" vertex="1" parent="1">
          <mxGeometry x="-30" y="394" width="80" height="80" as="geometry" />
        </mxCell>
        <mxCell id="T99oNMrwi7VfFmry0KHf-9" value="" style="ellipse;whiteSpace=wrap;html=1;aspect=fixed;" vertex="1" parent="1">
          <mxGeometry x="-250" y="206" width="80" height="80" as="geometry" />
        </mxCell>
        <mxCell id="T99oNMrwi7VfFmry0KHf-10" value="" style="ellipse;whiteSpace=wrap;html=1;aspect=fixed;" vertex="1" parent="1">
          <mxGeometry x="-147" y="296" width="80" height="80" as="geometry" />
        </mxCell>
      </root>
    </mxGraphModel>
  </diagram>
</mxfile>
